<svg xmlns="http://www.w3.org/2000/svg" xmlns:xlink="http://www.w3.org/1999/xlink" viewBox="0 0 64 80"><defs><style>.cls-1{fill:#ffb142;}.cls-2{fill:url(#linear-gradient);}.cls-3{fill:url(#linear-gradient-2);}.cls-4{fill:url(#linear-gradient-3);}.cls-5{fill:url(#linear-gradient-4);}.cls-6{fill:url(#linear-gradient-5);}.cls-7{fill:url(#linear-gradient-6);}.cls-8{fill:url(#linear-gradient-7);}.cls-9{fill:url(#linear-gradient-8);}.cls-10{fill:url(#linear-gradient-9);}.cls-11{fill:url(#linear-gradient-10);}</style><linearGradient id="linear-gradient" x1="32" y1="54.78" x2="32" y2="53.92" gradientUnits="userSpaceOnUse"><stop offset="0" stop-color="#fff"/><stop offset="1" stop-color="#fff" stop-opacity="0.3"/></linearGradient><linearGradient id="linear-gradient-2" x1="31.95" y1="67.56" x2="31.95" y2="37.81" gradientUnits="userSpaceOnUse"><stop offset="0" stop-color="#fff"/><stop offset="0.18" stop-color="#fff" stop-opacity="0.99"/><stop offset="0.33" stop-color="#fff" stop-opacity="0.95"/><stop offset="0.47" stop-color="#fff" stop-opacity="0.88"/><stop offset="0.6" stop-color="#fff" stop-opacity="0.78"/><stop offset="0.74" stop-color="#fff" stop-opacity="0.66"/><stop offset="0.86" stop-color="#fff" stop-opacity="0.5"/><stop offset="0.98" stop-color="#fff" stop-opacity="0.33"/><stop offset="1" stop-color="#fff" stop-opacity="0.3"/></linearGradient><linearGradient id="linear-gradient-3" x1="26.46" y1="32.44" x2="26.46" y2="35.64" gradientUnits="userSpaceOnUse"><stop offset="0" stop-color="#fff"/><stop offset="0.07" stop-color="#fff" stop-opacity="0.93"/><stop offset="0.31" stop-color="#fff" stop-opacity="0.7"/><stop offset="0.53" stop-color="#fff" stop-opacity="0.53"/><stop offset="0.72" stop-color="#fff" stop-opacity="0.4"/><stop offset="0.89" stop-color="#fff" stop-opacity="0.33"/><stop offset="1" stop-color="#fff" stop-opacity="0.3"/></linearGradient><linearGradient id="linear-gradient-4" x1="37.55" y1="32.44" x2="37.55" y2="35.64" xlink:href="#linear-gradient-3"/><linearGradient id="linear-gradient-5" x1="31.95" y1="48.39" x2="31.95" y2="46.34" gradientUnits="userSpaceOnUse"><stop offset="0" stop-color="#fff"/><stop offset="0.17" stop-color="#e4e4e4" stop-opacity="0.83"/><stop offset="0.38" stop-color="#c7c7c7" stop-opacity="0.64"/><stop offset="0.58" stop-color="#b0b0b0" stop-opacity="0.49"/><stop offset="0.75" stop-color="#9f9f9f" stop-opacity="0.39"/><stop offset="0.9" stop-color="#959595" stop-opacity="0.32"/><stop offset="1" stop-color="#919191" stop-opacity="0.3"/></linearGradient><linearGradient id="linear-gradient-6" x1="31.95" y1="47.84" x2="31.95" y2="47.84" xlink:href="#linear-gradient-5"/><linearGradient id="linear-gradient-7" x1="31.95" y1="46.36" x2="31.95" y2="46.36" xlink:href="#linear-gradient-5"/><linearGradient id="linear-gradient-8" x1="21.43" y1="43.8" x2="31.95" y2="43.8" xlink:href="#linear-gradient"/><linearGradient id="linear-gradient-9" x1="42.46" y1="43.8" x2="31.95" y2="43.8" xlink:href="#linear-gradient"/><linearGradient id="linear-gradient-10" x1="32.01" y1="14.44" x2="32.01" y2="47.85" gradientUnits="userSpaceOnUse"><stop offset="0" stop-color="#fff"/><stop offset="0.02" stop-color="#fff" stop-opacity="0.96"/><stop offset="0.08" stop-color="#fff" stop-opacity="0.8"/><stop offset="0.15" stop-color="#fff" stop-opacity="0.67"/><stop offset="0.23" stop-color="#fff" stop-opacity="0.55"/><stop offset="0.31" stop-color="#fff" stop-opacity="0.46"/><stop offset="0.41" stop-color="#fff" stop-opacity="0.39"/><stop offset="0.52" stop-color="#fff" stop-opacity="0.34"/><stop offset="0.67" stop-color="#fff" stop-opacity="0.31"/><stop offset="1" stop-color="#fff" stop-opacity="0.3"/></linearGradient></defs><title>Asset 2</title><g id="Layer_2" data-name="Layer 2"><g id="Layer_11" data-name="Layer 11"><rect class="cls-1" width="64" height="80"/><path class="cls-2" d="M32.78,53.92H31.22a.43.43,0,0,0,0,.86h1.56a.43.43,0,0,0,0-.86Z"/><path class="cls-3" d="M50.25,37.91a.48.48,0,0,0-.5,0,31.58,31.58,0,0,1-7.33,2.55.43.43,0,0,1-.24.24s-.56.22-1.38.58c-.46.21-1,.46-1.6.76-2.62,1.31-6.14,3.41-6.82,5.55,0,0,0,0,0,0a.41.41,0,0,1-.14.2l0,0a.39.39,0,0,1-.47,0l0,0a.43.43,0,0,1-.15-.2s0,0,0,0c-.68-2.14-4.2-4.24-6.83-5.55l-1.6-.76c-.81-.36-1.35-.57-1.37-.58a.47.47,0,0,1-.25-.23,32.14,32.14,0,0,1-7.32-2.56.48.48,0,0,0-.5,0,.46.46,0,0,0-.19.46l3.95,23.16a7,7,0,0,0,6.62,6H39.86a6.94,6.94,0,0,0,6.62-6h0l4-23.16A.47.47,0,0,0,50.25,37.91ZM34.14,54.26a2.15,2.15,0,0,1-.28,1,2.53,2.53,0,0,1-.13.22,2.1,2.1,0,0,1-.75.64,2,2,0,0,1-1,.25,2.17,2.17,0,0,1-1.44-.56,2.44,2.44,0,0,1-.33-.39,1.84,1.84,0,0,1-.32-.76,2,2,0,0,1-.05-.43C29.86,54,31,49,31,49h2s1.13,5,1.13,5.28Z"/><path class="cls-4" d="M26.63,35.63a1.6,1.6,0,0,0,0-3.18h-.17a1.6,1.6,0,0,0,0,3.2Z"/><path class="cls-5" d="M37.55,32.44l-.33,0a1.6,1.6,0,0,0,.33,3.17h.16a1.6,1.6,0,0,0-.16-3.19Z"/><path class="cls-6" d="M32,46.35h0v0h0Z"/><polygon class="cls-7" points="31.95 47.84 31.95 47.84 31.95 47.84 31.95 47.84"/><polygon class="cls-8" points="31.95 46.36 31.95 46.36 31.95 46.36 31.95 46.36"/><path class="cls-9" d="M22,39.79a.45.45,0,1,0-.32.84c.08,0,8.69,3.41,9.8,6.9v0a.36.36,0,0,0,.15.19l0,0,.1,0,.14,0h0V46.36h0C29.82,42.86,22.39,39.93,22,39.79Z"/><path class="cls-10" d="M42.43,40.05a.45.45,0,0,0-.58-.26c-.34.13-7.76,3.06-9.89,6.56h0v1.48h0l.13,0,.1,0,0,0a.45.45,0,0,0,.14-.19l0,0a3.76,3.76,0,0,1,.2-.46c1.66-3.31,9.51-6.41,9.6-6.44A.45.45,0,0,0,42.43,40.05Z"/><path class="cls-11" d="M44.42,21.54c-.19,1.74-1.3,5.7-3.76,6.07-6.15.93-7-8.67-2.75-13,0,0-5.14-1.54-8.68,5.16-2.6,4.92-2.11,9.81-5.95,9.37-2.4-.28-4.15-4.71.36-10.33,0,0-4.79,1.82-8.39,9.58a19.19,19.19,0,0,0-1.72,9.68.88.88,0,0,1,.12-.15.48.48,0,0,1,.5,0,32.54,32.54,0,0,0,7.33,2.55h0a.52.52,0,0,1,0-.37.46.46,0,0,1,.59-.25c.34.13,7.77,3.06,9.9,6.57h0v0c2.13-3.5,9.55-6.42,9.89-6.55a.46.46,0,0,1,.59.25.49.49,0,0,1,0,.36h0a32.45,32.45,0,0,0,7.32-2.55.47.47,0,0,1,.5,0,.47.47,0,0,1,.18.43C51.13,32.19,48.64,26.52,44.42,21.54ZM21.66,32.11a4.66,4.66,0,0,1,.45-2l4.77.77,4.35.71a4.71,4.71,0,0,1,0,.53,4.8,4.8,0,0,1-4.6,4.8h-.45A4.81,4.81,0,0,1,21.66,32.11Zm14.83,10-.37-1.76a16.2,16.2,0,0,1-4,.59h-.17a16.2,16.2,0,0,1-4-.59l-.37,1.76-1.31-3.5a17.18,17.18,0,0,0,5.71.94h.17a17.28,17.28,0,0,0,5.72-.94Zm1.26-5.19h-.2a4.8,4.8,0,0,1-4.8-4.81,4.71,4.71,0,0,1,0-.53L37,30.9l4.93-.8a4.66,4.66,0,0,1,.45,2A4.8,4.8,0,0,1,37.75,36.91Z"/></g></g></svg>